<svg width="1262" height="312" viewBox="0 0 1262 312" fill="none" xmlns="http://www.w3.org/2000/svg">
<mask id="mask0_123_190" style="mask-type:alpha" maskUnits="userSpaceOnUse" x="0" y="0" width="1262" height="312">
<rect width="1262" height="312" rx="8" fill="#242424"/>
</mask>
<g mask="url(#mask0_123_190)">
<g opacity="0.2">
<rect x="183.145" y="64" width="5" height="5" rx="2.5" transform="rotate(90 183.145 64)" fill="black"/>
<rect x="183.145" y="85" width="5" height="5" rx="2.5" transform="rotate(90 183.145 85)" fill="black"/>
<rect x="183.145" y="106" width="5" height="5" rx="2.5" transform="rotate(90 183.145 106)" fill="black"/>
<rect x="183.145" y="127" width="5" height="5" rx="2.5" transform="rotate(90 183.145 127)" fill="black"/>
<rect x="183.145" y="148" width="5" height="5" rx="2.5" transform="rotate(90 183.145 148)" fill="black"/>
<rect x="183.145" y="169" width="5" height="5" rx="2.5" transform="rotate(90 183.145 169)" fill="black"/>
<rect x="183.145" y="190" width="5" height="5" rx="2.5" transform="rotate(90 183.145 190)" fill="black"/>
<rect x="183.145" y="211" width="5" height="5" rx="2.5" transform="rotate(90 183.145 211)" fill="black"/>
<rect x="162.145" y="64" width="5" height="5" rx="2.5" transform="rotate(90 162.145 64)" fill="black"/>
<rect x="162.145" y="85" width="5" height="5" rx="2.5" transform="rotate(90 162.145 85)" fill="black"/>
<rect x="162.145" y="106" width="5" height="5" rx="2.5" transform="rotate(90 162.145 106)" fill="black"/>
<rect x="162.145" y="127" width="5" height="5" rx="2.5" transform="rotate(90 162.145 127)" fill="black"/>
<rect x="162.145" y="148" width="5" height="5" rx="2.5" transform="rotate(90 162.145 148)" fill="black"/>
<rect x="162.145" y="169" width="5" height="5" rx="2.5" transform="rotate(90 162.145 169)" fill="black"/>
<rect x="162.145" y="190" width="5" height="5" rx="2.5" transform="rotate(90 162.145 190)" fill="black"/>
<rect x="162.145" y="211" width="5" height="5" rx="2.5" transform="rotate(90 162.145 211)" fill="black"/>
<rect x="141.145" y="64" width="5" height="5" rx="2.5" transform="rotate(90 141.145 64)" fill="black"/>
<rect x="141.145" y="85" width="5" height="5" rx="2.5" transform="rotate(90 141.145 85)" fill="black"/>
<rect x="141.145" y="106" width="5" height="5" rx="2.5" transform="rotate(90 141.145 106)" fill="black"/>
<rect x="141.145" y="127" width="5" height="5" rx="2.5" transform="rotate(90 141.145 127)" fill="black"/>
<rect x="141.145" y="148" width="5" height="5" rx="2.5" transform="rotate(90 141.145 148)" fill="black"/>
<rect x="141.145" y="169" width="5" height="5" rx="2.5" transform="rotate(90 141.145 169)" fill="black"/>
<rect x="141.145" y="190" width="5" height="5" rx="2.5" transform="rotate(90 141.145 190)" fill="black"/>
<rect x="141.145" y="211" width="5" height="5" rx="2.5" transform="rotate(90 141.145 211)" fill="black"/>
<rect x="120.145" y="64" width="5" height="5" rx="2.5" transform="rotate(90 120.145 64)" fill="black"/>
<rect x="120.145" y="85" width="5" height="5" rx="2.5" transform="rotate(90 120.145 85)" fill="black"/>
<rect x="120.145" y="106" width="5" height="5" rx="2.5" transform="rotate(90 120.145 106)" fill="black"/>
<rect x="120.145" y="127" width="5" height="5" rx="2.5" transform="rotate(90 120.145 127)" fill="black"/>
<rect x="120.145" y="148" width="5" height="5" rx="2.5" transform="rotate(90 120.145 148)" fill="black"/>
<rect x="120.145" y="169" width="5" height="5" rx="2.5" transform="rotate(90 120.145 169)" fill="black"/>
<rect x="120.145" y="190" width="5" height="5" rx="2.5" transform="rotate(90 120.145 190)" fill="black"/>
<rect x="120.145" y="211" width="5" height="5" rx="2.5" transform="rotate(90 120.145 211)" fill="black"/>
</g>
<g opacity="0.2">
<rect x="1064.57" y="248" width="5" height="5" rx="2.5" transform="rotate(-180 1064.57 248)" fill="#ED1CA6"/>
<rect x="1043.57" y="248" width="5" height="5" rx="2.5" transform="rotate(-180 1043.57 248)" fill="#ED1CA6"/>
<rect x="1022.57" y="248" width="5" height="5" rx="2.5" transform="rotate(-180 1022.57 248)" fill="#ED1CA6"/>
<rect x="1001.57" y="248" width="5" height="5" rx="2.5" transform="rotate(-180 1001.57 248)" fill="#ED1CA6"/>
<rect x="980.567" y="248" width="5" height="5" rx="2.5" transform="rotate(-180 980.567 248)" fill="#ED1CA6"/>
<rect x="959.567" y="248" width="5" height="5" rx="2.5" transform="rotate(-180 959.567 248)" fill="#ED1CA6"/>
<rect x="938.567" y="248" width="5" height="5" rx="2.5" transform="rotate(-180 938.567 248)" fill="#ED1CA6"/>
<rect x="917.567" y="248" width="5" height="5" rx="2.5" transform="rotate(-180 917.567 248)" fill="#ED1CA6"/>
<rect x="1064.57" y="227" width="5" height="5" rx="2.5" transform="rotate(-180 1064.57 227)" fill="#ED1CA6"/>
<rect x="1043.57" y="227" width="5" height="5" rx="2.5" transform="rotate(-180 1043.57 227)" fill="#ED1CA6"/>
<rect x="1022.57" y="227" width="5" height="5" rx="2.5" transform="rotate(-180 1022.57 227)" fill="#ED1CA6"/>
<rect x="1001.57" y="227" width="5" height="5" rx="2.5" transform="rotate(-180 1001.57 227)" fill="#ED1CA6"/>
<rect x="980.567" y="227" width="5" height="5" rx="2.5" transform="rotate(-180 980.567 227)" fill="#ED1CA6"/>
<rect x="959.567" y="227" width="5" height="5" rx="2.5" transform="rotate(-180 959.567 227)" fill="#ED1CA6"/>
<rect x="938.567" y="227" width="5" height="5" rx="2.5" transform="rotate(-180 938.567 227)" fill="#ED1CA6"/>
<rect x="917.567" y="227" width="5" height="5" rx="2.5" transform="rotate(-180 917.567 227)" fill="#ED1CA6"/>
<rect x="1064.57" y="206" width="5" height="5" rx="2.5" transform="rotate(-180 1064.57 206)" fill="#ED1CA6"/>
<rect x="1043.57" y="206" width="5" height="5" rx="2.5" transform="rotate(-180 1043.57 206)" fill="#ED1CA6"/>
<rect x="1022.57" y="206" width="5" height="5" rx="2.5" transform="rotate(-180 1022.57 206)" fill="#ED1CA6"/>
<rect x="1001.57" y="206" width="5" height="5" rx="2.5" transform="rotate(-180 1001.57 206)" fill="#ED1CA6"/>
<rect x="980.567" y="206" width="5" height="5" rx="2.5" transform="rotate(-180 980.567 206)" fill="#ED1CA6"/>
<rect x="959.567" y="206" width="5" height="5" rx="2.5" transform="rotate(-180 959.567 206)" fill="#ED1CA6"/>
<rect x="938.567" y="206" width="5" height="5" rx="2.5" transform="rotate(-180 938.567 206)" fill="#ED1CA6"/>
<rect x="917.567" y="206" width="5" height="5" rx="2.5" transform="rotate(-180 917.567 206)" fill="#ED1CA6"/>
<rect x="1064.57" y="185" width="5" height="5" rx="2.5" transform="rotate(-180 1064.57 185)" fill="#ED1CA6"/>
<rect x="1043.57" y="185" width="5" height="5" rx="2.5" transform="rotate(-180 1043.57 185)" fill="#ED1CA6"/>
<rect x="1022.57" y="185" width="5" height="5" rx="2.5" transform="rotate(-180 1022.57 185)" fill="#ED1CA6"/>
<rect x="1001.57" y="185" width="5" height="5" rx="2.5" transform="rotate(-180 1001.57 185)" fill="#ED1CA6"/>
<rect x="980.567" y="185" width="5" height="5" rx="2.5" transform="rotate(-180 980.567 185)" fill="#ED1CA6"/>
<rect x="959.567" y="185" width="5" height="5" rx="2.5" transform="rotate(-180 959.567 185)" fill="#ED1CA6"/>
<rect x="938.567" y="185" width="5" height="5" rx="2.5" transform="rotate(-180 938.567 185)" fill="#ED1CA6"/>
<rect x="917.567" y="185" width="5" height="5" rx="2.5" transform="rotate(-180 917.567 185)" fill="#ED1CA6"/>
</g>
<ellipse opacity="0.03" cx="141.975" cy="403.5" rx="252.878" ry="264.5" fill="#A7045C"/>
<ellipse opacity="0.03" cx="1118.59" cy="64" rx="36.3303" ry="38" fill="#FC5AB1"/>
</g>
</svg>
